<svg id="Layer_1" data-name="Layer 1" xmlns="http://www.w3.org/2000/svg" viewBox="0 0 26.09 25"><defs><style>.cls-1,.cls-3,.cls-4{fill:none;}.cls-2{fill:#69c1ec;}.cls-3,.cls-4{stroke:#000;stroke-linecap:round;stroke-linejoin:round;}.cls-3{stroke-width:0.83px;}.cls-4{stroke-width:0.72px;}</style></defs><title>1</title><rect id="Rectangle_1803-3" data-name="Rectangle 1803-3" class="cls-1" width="26.09" height="25"/><path id="Path_3102" data-name="Path 3102" class="cls-2" d="M16.93,14.18v-5l5.71-1.55v7.69Z" transform="translate(0.79 -0.23)"/><path id="Path_1290" data-name="Path 1290" class="cls-3" d="M17,11.59V7.72A2.66,2.66,0,0,0,14.27,5.1H4.13A2.66,2.66,0,0,0,1.44,7.72v7.74a2.66,2.66,0,0,0,2.69,2.62H14.27A2.67,2.67,0,0,0,17,15.46Z" transform="translate(0.79 -0.23)"/><path id="Path_1291" data-name="Path 1291" class="cls-4" d="M21.44,7.69,17,9.34v4.5l4.48,1.65A1.25,1.25,0,0,0,23,14.65a1,1,0,0,0,0-.45V9A1.26,1.26,0,0,0,21.9,7.63,1.19,1.19,0,0,0,21.44,7.69Z" transform="translate(0.79 -0.23)"/></svg>