<svg id="Layer_1" data-name="Layer 1" xmlns="http://www.w3.org/2000/svg" viewBox="0 0 23.14 22.18"><defs><style>.cls-1,.cls-3,.cls-4{fill:none;}.cls-2{fill:#da1964;}.cls-3,.cls-4{stroke:#fff;stroke-linecap:round;stroke-linejoin:round;}.cls-3{stroke-width:0.83px;}.cls-4{stroke-width:0.72px;}</style></defs><title>Traning red</title><g id="Group_11889-3" data-name="Group 11889-3"><rect id="Rectangle_1803-3" data-name="Rectangle 1803-3" class="cls-1" width="23.14" height="22.18"/><path id="Path_3102" data-name="Path 3102" class="cls-2" d="M17,13.83V9.39L22,8v6.82Z" transform="translate(-1.26 -1.45)"/><path id="Path_1290" data-name="Path 1290" class="cls-3" d="M17,11.53V8.1a2.36,2.36,0,0,0-2.38-2.33h-9A2.36,2.36,0,0,0,3.24,8.1V15a2.35,2.35,0,0,0,2.38,2.32h9A2.34,2.34,0,0,0,17,15Z" transform="translate(-1.26 -1.45)"/><path id="Path_1291" data-name="Path 1291" class="cls-4" d="M21,8.07,17,9.53v4L21,15a1.13,1.13,0,0,0,1.4-.75,1.07,1.07,0,0,0,0-.4V9.21a1.11,1.11,0,0,0-1-1.19A1.13,1.13,0,0,0,21,8.07Z" transform="translate(-1.26 -1.45)"/></g></svg>