<svg id="Layer_1" data-name="Layer 1" xmlns="http://www.w3.org/2000/svg" viewBox="0 0 20.74 21.74"><defs><style>.cls-1{fill:#da1964;}.cls-2{fill:#fff;}</style></defs><title>Classi..red</title><circle id="Ellipse_46" data-name="Ellipse 46" class="cls-1" cx="13.43" cy="13.95" r="3.62"/><path class="cls-2" d="M5.59.65h15.2a3.59,3.59,0,0,1,.64.35,1.35,1.35,0,0,1,.41,1.1q0,8.7,0,17.42a.5.5,0,0,0,.17.41c.2.18.4.38.59.58a1.09,1.09,0,0,1-1.44,1.63.26.26,0,0,0-.21,0,2.19,2.19,0,0,1-1,.25c-5.36,0-10.72,0-16.08,0a1.61,1.61,0,0,1-1.64-1.63c0-4.19,0-8.38,0-12.57A1,1,0,0,1,3.3,7.1H4.58V2A1.29,1.29,0,0,1,5.51.69ZM11.3,13.79H6.59a.31.31,0,0,1-.31-.31.32.32,0,0,1,.31-.33h4.8a.3.3,0,0,0,.3-.17A4.78,4.78,0,1,1,20,17.7c0,.05,0,.15,0,.18l1.21,1.22v-17c0-.56-.23-.79-.8-.79H6.06c-.62,0-.84.23-.84.85V20A2.88,2.88,0,0,1,5,21.74H19.85a1.47,1.47,0,0,0,.21,0l.52-.13-.08-.11-2-2c-.11-.11-.18-.06-.27,0a4.76,4.76,0,0,1-5.51-.58,12.13,12.13,0,0,1-.91-1,.39.39,0,0,1-.41.23H6.69a.57.57,0,0,1-.13,0,.29.29,0,0,1-.28-.31.3.3,0,0,1,.28-.32,1.21,1.21,0,0,1,.19,0H11.6a5.21,5.21,0,0,1-.54-2.05H6.69c-.27,0-.41-.12-.41-.32s.14-.33.4-.33a1,1,0,0,1,.17,0h4.23ZM20,15.32a4.14,4.14,0,1,0-4.16,4.13A4.15,4.15,0,0,0,20,15.32ZM4.57,7.74H3.33c-.41,0-.5.09-.5.5V20.91a.87.87,0,0,0,.63.79.86.86,0,0,0,1.12-.84V7.91S4.57,7.82,4.57,7.74ZM18.93,19c.86.85,1.72,1.72,2.59,2.57a.5.5,0,0,0,.42.12c.37-.07.45-.48.16-.77l-2.18-2.19c-.13-.12-.24-.26-.35-.37Z" transform="translate(-2.18 -0.65)"/><path class="cls-2" d="M13.15,7.27H7.08a.74.74,0,0,1-.85-.85V5.64a.31.31,0,0,1,.32-.34.33.33,0,0,1,.32.35c0,.26,0,.52,0,.78s0,.2.18.19h12.1c.32,0,.32,0,.32-.32,0-1,0-1.95,0-2.93,0-.18,0-.25-.24-.25H7.09c-.17,0-.24,0-.23.23s0,.5,0,.74-.14.37-.33.37-.31-.14-.31-.37V3.22A.72.72,0,0,1,7,2.48H19.21c.63,0,.9.26.9.9V6.44a.75.75,0,0,1-.83.82Z" transform="translate(-2.18 -0.65)"/><path class="cls-2" d="M9,10.45h2.36c.27,0,.41.11.4.32s-.14.32-.41.32H6.67c-.3,0-.48-.22-.36-.46a.34.34,0,0,1,.35-.18Z" transform="translate(-2.18 -0.65)"/><path class="cls-2" d="M9,19.16h2.37c.25,0,.39.12.38.33a.28.28,0,0,1-.26.3H6.61a.32.32,0,0,1-.33-.32.31.31,0,0,1,.34-.32c.59,0,1.19,0,1.78,0Z" transform="translate(-2.18 -0.65)"/><path class="cls-2" d="M9.05,8.79h2.44a.29.29,0,0,1,.3.3.32.32,0,0,1-.28.34H6.59a.32.32,0,0,1-.31-.34.3.3,0,0,1,.31-.3H9.05Z" transform="translate(-2.18 -0.65)"/><path class="cls-2" d="M17.28,8.79h2.34c.08,0,.19,0,.24,0a.54.54,0,0,1,.19.31c0,.15-.1.25-.26.29a.59.59,0,0,1-.19,0H14.89a.33.33,0,0,1-.36-.33c0-.19.14-.31.36-.31h2.39Z" transform="translate(-2.18 -0.65)"/><path class="cls-2" d="M19.33,11.09h-.41a.32.32,0,0,1-.31-.33.31.31,0,0,1,.31-.31h.83a.32.32,0,0,1,0,.63Z" transform="translate(-2.18 -0.65)"/><path class="cls-2" d="M15.86,11.84a3.47,3.47,0,0,1,3.34,2.54.61.61,0,0,1,0,.33.4.4,0,0,1-.28.18.47.47,0,0,1-.29-.19,3.26,3.26,0,0,1-.15-.44,2.83,2.83,0,1,0,.07,1.91c0-.06,0-.11,0-.17a.33.33,0,0,1,.42-.23.31.31,0,0,1,.2.41,6,6,0,0,1-.44,1,3.47,3.47,0,1,1-2.91-5.34Z" transform="translate(-2.18 -0.65)"/></svg>