<?xml version="1.0" encoding="utf-8"?>
<!-- Generator: Adobe Illustrator 23.0.5, SVG Export Plug-In . SVG Version: 6.00 Build 0)  -->
<svg version="1.1" id="Layer_1" xmlns="http://www.w3.org/2000/svg" xmlns:xlink="http://www.w3.org/1999/xlink" x="0px" y="0px"
	 viewBox="0 0 1125 2436" style="enable-background:new 0 0 1125 2436;" xml:space="preserve">
<style type="text/css">
	.st0{fill:#E95D49;}
	.st1{fill:#FFFFFF;}
</style>
<path class="st0" d="M533.92,1217.31c0,15.51,12.57,28.08,28.08,28.08c15.51,0,28.08-12.57,28.08-28.08
	c0-15.51-12.57-28.08-28.08-28.08C546.49,1189.23,533.92,1201.8,533.92,1217.31"/>
<polygon class="st1" points="547.01,1224.02 544.49,1224.02 544.49,1203.05 552.75,1213.47 560.8,1203.05 560.8,1224.02 
	558.43,1224.02 558.43,1210.05 552.75,1217.12 547.01,1210.05 "/>
<path class="st1" d="M572.08,1223.95c-1.41,0-2.78-0.28-4.07-0.82c-0.62-0.26-1.22-0.59-1.78-0.96c-0.55-0.37-1.07-0.8-1.55-1.28
	c-0.47-0.47-0.9-0.99-1.28-1.55c-0.38-0.56-0.7-1.16-0.96-1.78c-0.55-1.29-0.82-2.66-0.82-4.07s0.28-2.78,0.82-4.07
	c0.26-0.62,0.59-1.22,0.96-1.78c0.38-0.55,0.8-1.07,1.28-1.55c0.47-0.47,0.99-0.9,1.55-1.28c0.56-0.38,1.16-0.7,1.78-0.96
	c1.29-0.55,2.66-0.82,4.07-0.82c1.41,0,2.78,0.28,4.07,0.82c0.62,0.26,1.22,0.59,1.78,0.96c0.55,0.37,1.07,0.8,1.55,1.28
	c0.05,0.05,0.1,0.1,0.16,0.16l-0.15,0.01l-1.39,1.39c-1.6-1.64-3.73-2.55-6.02-2.55c-4.63,0-8.39,3.76-8.39,8.39
	s3.76,8.39,8.39,8.39c2.15,0,4.19-0.81,5.75-2.29l1.44,1.46h0.03c-0.43,0.41-0.89,0.78-1.37,1.11c-0.56,0.38-1.16,0.7-1.78,0.96
	C574.86,1223.68,573.49,1223.95,572.08,1223.95"/>
<path class="st1" d="M572.08,1220.25c-0.91,0-1.8-0.18-2.63-0.53c-0.8-0.34-1.53-0.83-2.15-1.45c-0.62-0.62-1.11-1.34-1.45-2.15
	c-0.35-0.83-0.53-1.72-0.53-2.63s0.18-1.8,0.53-2.63c0.34-0.8,0.83-1.53,1.45-2.15c0.62-0.62,1.34-1.11,2.15-1.45
	c0.83-0.35,1.72-0.53,2.63-0.53c0.91,0,1.8,0.18,2.63,0.53c0.8,0.34,1.53,0.83,2.15,1.45c0.03,0.03,0.06,0.06,0.09,0.09l-1.41,1.41
	c-0.91-0.96-2.14-1.49-3.45-1.49c-2.63,0-4.77,2.14-4.77,4.77c0,2.63,2.14,4.76,4.77,4.76c1.19,0,2.33-0.44,3.21-1.24l1.4,1.42
	c-0.58,0.54-1.25,0.97-1.98,1.28C573.87,1220.07,572.99,1220.25,572.08,1220.25"/>
<path class="st1" d="M572.08,1216.87c-0.46,0-0.9-0.09-1.31-0.26c-0.4-0.17-0.76-0.41-1.07-0.72c-0.31-0.31-0.55-0.67-0.72-1.07
	c-0.18-0.42-0.27-0.86-0.27-1.31c0-0.46,0.09-0.9,0.27-1.31c0.17-0.4,0.41-0.76,0.72-1.08c0.31-0.31,0.67-0.55,1.07-0.72
	c0.42-0.18,0.86-0.27,1.31-0.27s0.9,0.09,1.32,0.27c0.4,0.17,0.76,0.41,1.07,0.72c0.03,0.03,0.06,0.06,0.09,0.09l-1.24,1.25
	c-0.31-0.36-0.76-0.57-1.23-0.57c-0.89,0-1.62,0.73-1.62,1.62c0,0.89,0.73,1.62,1.62,1.62c0.36,0,0.71-0.12,0.99-0.34l1.24,1.26
	c-0.27,0.24-0.58,0.44-0.92,0.58C572.98,1216.78,572.53,1216.87,572.08,1216.87"/>
<path class="st1" d="M557.1,1228.83h0.72v-1.27h0.82v1.27h0.72v-3.21h-0.72v1.19h-0.82v-1.19h-0.72V1228.83z M554.55,1228.44
	c0.29,0.31,0.69,0.46,1.04,0.46c0.68,0,1.07-0.48,1.07-1.03c0-0.44-0.19-0.72-0.54-0.88l-0.33-0.15c-0.25-0.11-0.4-0.17-0.4-0.32
	c0-0.14,0.11-0.22,0.29-0.22c0.2,0,0.36,0.08,0.55,0.23l0.36-0.53c-0.25-0.29-0.6-0.43-0.91-0.43c-0.6,0-1.02,0.45-1.02,1
	c0,0.46,0.26,0.76,0.55,0.89l0.34,0.17c0.23,0.11,0.37,0.16,0.37,0.31c0,0.14-0.09,0.23-0.31,0.23c-0.2,0-0.45-0.13-0.64-0.31
	L554.55,1228.44z M552.38,1228.83h1.81v-0.71h-1.09v-0.57H554v-0.71h-0.89v-0.5h1.04v-0.71h-1.77V1228.83z M549.74,1228.83h0.72
	v-0.8l0.26-0.43l0.61,1.23h0.79l-0.98-1.91l0.82-1.3h-0.79l-0.69,1.19h-0.02v-1.19h-0.72V1228.83z M546.89,1227.28
	c0,1.1,0.37,1.61,1.14,1.61c0.77,0,1.12-0.51,1.12-1.61v-1.66h-0.7v1.76c0,0.57-0.14,0.78-0.42,0.78c-0.29,0-0.41-0.21-0.41-0.78
	v-1.76h-0.72V1227.28z M543.64,1228.83h0.66v-0.95c0-0.33-0.06-0.82-0.09-1.15h0.02l0.22,0.75l0.38,1.08h0.27l0.38-1.08l0.23-0.75
	h0.02c-0.03,0.32-0.09,0.82-0.09,1.15v0.95h0.67v-3.21h-0.75l-0.41,1.33l-0.15,0.52h-0.02l-0.15-0.52l-0.43-1.33h-0.75V1228.83z"/>
<path class="st1" d="M579.55,1228.75h0.81l-0.88-3.12h-0.92l-0.88,3.12h0.78l0.14-0.66h0.81L579.55,1228.75z M578.74,1227.45
	l0.05-0.22c0.07-0.3,0.14-0.67,0.2-0.99h0.02c0.07,0.31,0.14,0.69,0.21,0.99l0.05,0.22H578.74z M577.7,1228.75l-0.63-1.21
	c0.28-0.16,0.46-0.45,0.46-0.9c0-0.78-0.53-1.01-1.15-1.01h-1.09v3.12h0.76v-1.05h0.29l0.5,1.05H577.7z M576.06,1226.28h0.28
	c0.3,0,0.46,0.09,0.46,0.35c0,0.27-0.16,0.41-0.46,0.41h-0.28V1226.28z M573.35,1228.11v-0.68h0.31c0.3,0,0.44,0.09,0.44,0.33
	c0,0.23-0.14,0.35-0.44,0.35H573.35z M573.35,1226.86v-0.59h0.26c0.25,0,0.36,0.08,0.36,0.27c0,0.19-0.11,0.33-0.36,0.33H573.35z
	 M572.59,1228.75h1.13c0.62,0,1.13-0.28,1.13-0.92c0-0.41-0.2-0.64-0.61-0.73v-0.02c0.34-0.1,0.48-0.4,0.48-0.67
	c0-0.61-0.49-0.78-1.09-0.78h-1.04V1228.75z M571.51,1228.75h0.8l-0.88-3.12h-0.92l-0.88,3.12h0.78l0.14-0.66h0.81L571.51,1228.75z
	 M570.7,1227.45l0.05-0.22c0.07-0.3,0.14-0.67,0.2-0.99h0.02c0.07,0.31,0.14,0.69,0.21,0.99l0.05,0.22H570.7z M566.98,1228.75h0.76
	v-1.24h0.86v1.24h0.76v-3.12h-0.76v1.16h-0.86v-1.16h-0.76V1228.75z M563.96,1228.75h0.76v-1.24h0.86v1.24h0.76v-3.12h-0.76v1.16
	h-0.86v-1.16h-0.76V1228.75z M561.24,1227.21c0,1.06,0.64,1.59,1.39,1.59c0.35,0,0.69-0.15,0.93-0.46l-0.42-0.5
	c-0.12,0.14-0.28,0.25-0.51,0.25c-0.37,0-0.62-0.33-0.62-0.91c0-0.57,0.29-0.9,0.64-0.9c0.19,0,0.31,0.08,0.45,0.21l0.42-0.51
	c-0.2-0.22-0.51-0.41-0.88-0.41C561.9,1225.57,561.24,1226.17,561.24,1227.21"/>
<path class="st1" d="M579.44,1231.55v-0.77l-0.66-1.05h0.28l0.34,0.55c0.06,0.1,0.12,0.21,0.17,0.31c0.05-0.1,0.12-0.2,0.19-0.32
	l0.33-0.54h0.27l-0.69,1.05v0.77H579.44z M576.27,1231.55v-1.82h0.23l0.9,1.43v-1.43h0.22v1.82h-0.23l-0.9-1.43v1.43H576.27z
	 M574.01,1230.8h0.58l-0.18-0.51c-0.05-0.15-0.1-0.28-0.12-0.38c-0.02,0.12-0.05,0.23-0.09,0.35L574.01,1230.8z M573.52,1231.55
	l0.66-1.82h0.24l0.7,1.82h-0.26l-0.2-0.55h-0.72l-0.19,0.55H573.52z M571.55,1230.59h0.44c0.15,0,0.25-0.03,0.31-0.09
	c0.06-0.06,0.09-0.14,0.09-0.24c0-0.08-0.02-0.14-0.05-0.2c-0.04-0.05-0.08-0.09-0.14-0.11c-0.04-0.01-0.11-0.02-0.21-0.02h-0.44
	V1230.59z M571.32,1231.55v-1.82h0.65c0.11,0,0.2,0.01,0.26,0.02c0.08,0.02,0.15,0.04,0.21,0.09c0.06,0.04,0.1,0.1,0.14,0.18
	c0.03,0.08,0.05,0.16,0.05,0.25c0,0.16-0.05,0.29-0.14,0.39c-0.09,0.11-0.26,0.16-0.5,0.16h-0.44v0.74H571.32z M568.36,1231.55
	v-1.82h0.34l0.41,1.29c0.04,0.12,0.06,0.21,0.08,0.27c0.02-0.06,0.05-0.16,0.09-0.29l0.41-1.27H570v1.82h-0.22v-1.53l-0.5,1.53
	h-0.21l-0.5-1.55v1.55H568.36z M565.7,1230.66c0,0.22,0.06,0.39,0.17,0.52c0.11,0.13,0.25,0.19,0.42,0.19
	c0.17,0,0.31-0.06,0.42-0.19c0.11-0.13,0.17-0.31,0.17-0.54c0-0.15-0.02-0.28-0.07-0.39c-0.05-0.11-0.12-0.2-0.21-0.26
	c-0.09-0.06-0.19-0.09-0.31-0.09c-0.16,0-0.3,0.06-0.41,0.18C565.76,1230.19,565.7,1230.39,565.7,1230.66 M565.47,1230.66
	c0-0.3,0.08-0.54,0.23-0.71c0.15-0.17,0.35-0.26,0.59-0.26c0.16,0,0.3,0.04,0.43,0.12c0.13,0.08,0.22,0.19,0.29,0.34
	c0.07,0.14,0.1,0.31,0.1,0.49c0,0.19-0.04,0.35-0.11,0.5s-0.17,0.26-0.3,0.33c-0.13,0.07-0.27,0.11-0.42,0.11
	c-0.16,0-0.31-0.04-0.43-0.13c-0.13-0.08-0.22-0.2-0.29-0.34C565.5,1230.97,565.47,1230.82,565.47,1230.66 M564.07,1230.91
	l0.23,0.06c-0.05,0.2-0.13,0.35-0.26,0.45c-0.12,0.1-0.28,0.16-0.45,0.16c-0.19,0-0.34-0.04-0.45-0.12c-0.12-0.08-0.2-0.2-0.27-0.35
	c-0.06-0.15-0.09-0.31-0.09-0.49c0-0.19,0.03-0.35,0.1-0.5c0.07-0.14,0.16-0.25,0.29-0.32c0.13-0.07,0.27-0.11,0.42-0.11
	c0.17,0,0.32,0.05,0.43,0.14c0.12,0.09,0.2,0.22,0.24,0.39l-0.22,0.06c-0.04-0.13-0.1-0.23-0.17-0.29
	c-0.07-0.06-0.17-0.09-0.29-0.09c-0.13,0-0.24,0.03-0.33,0.1c-0.09,0.07-0.15,0.16-0.19,0.27c-0.04,0.11-0.05,0.23-0.05,0.35
	c0,0.16,0.02,0.29,0.06,0.41c0.04,0.12,0.11,0.2,0.2,0.26c0.09,0.06,0.19,0.09,0.29,0.09c0.13,0,0.23-0.04,0.32-0.12
	C563.98,1231.18,564.04,1231.06,564.07,1230.91 M559.19,1230.83v-0.21l0.73,0v0.68c-0.11,0.09-0.23,0.17-0.35,0.21
	c-0.12,0.05-0.24,0.07-0.37,0.07c-0.17,0-0.32-0.04-0.46-0.12c-0.14-0.08-0.24-0.19-0.31-0.33c-0.07-0.15-0.11-0.31-0.11-0.49
	c0-0.18,0.03-0.34,0.11-0.5c0.07-0.15,0.17-0.27,0.3-0.34c0.13-0.07,0.28-0.11,0.45-0.11c0.13,0,0.24,0.02,0.34,0.06
	c0.1,0.04,0.18,0.1,0.24,0.18c0.06,0.08,0.1,0.18,0.13,0.3l-0.2,0.06c-0.03-0.09-0.06-0.17-0.1-0.22c-0.04-0.05-0.09-0.09-0.16-0.13
	c-0.07-0.03-0.15-0.05-0.24-0.05c-0.1,0-0.19,0.02-0.27,0.05c-0.08,0.03-0.14,0.08-0.18,0.13c-0.05,0.05-0.08,0.11-0.11,0.18
	c-0.04,0.11-0.07,0.23-0.07,0.37c0,0.16,0.03,0.3,0.08,0.41c0.05,0.11,0.13,0.19,0.23,0.24c0.1,0.05,0.21,0.08,0.32,0.08
	c0.1,0,0.19-0.02,0.29-0.06c0.09-0.04,0.16-0.08,0.21-0.13v-0.34H559.19z M555.69,1231.55v-1.82h0.23l0.9,1.43v-1.43h0.22v1.82
	h-0.23l-0.9-1.43v1.43H555.69z M554.1,1229.73h0.23v1.82h-0.23V1229.73z M552.08,1231.55v-1.61h-0.57v-0.21h1.36v0.21h-0.57v1.61
	H552.08z M549,1230.96l0.22-0.02c0.01,0.09,0.03,0.17,0.07,0.22c0.04,0.06,0.1,0.11,0.17,0.14c0.08,0.04,0.17,0.05,0.26,0.05
	c0.09,0,0.16-0.01,0.23-0.04c0.07-0.03,0.12-0.06,0.15-0.11c0.03-0.05,0.05-0.1,0.05-0.16c0-0.06-0.02-0.11-0.05-0.15
	c-0.03-0.04-0.08-0.08-0.15-0.11c-0.04-0.02-0.15-0.05-0.3-0.09c-0.16-0.04-0.27-0.08-0.33-0.11c-0.08-0.05-0.14-0.1-0.18-0.17
	c-0.04-0.07-0.06-0.14-0.06-0.23c0-0.09,0.03-0.18,0.07-0.26c0.05-0.08,0.12-0.14,0.22-0.18c0.09-0.04,0.2-0.06,0.32-0.06
	c0.13,0,0.24,0.02,0.34,0.07c0.1,0.04,0.17,0.11,0.23,0.19c0.05,0.08,0.08,0.18,0.08,0.29l-0.22,0.02c-0.01-0.12-0.05-0.2-0.12-0.26
	c-0.07-0.06-0.17-0.09-0.3-0.09c-0.14,0-0.24,0.03-0.3,0.08c-0.06,0.05-0.09,0.12-0.09,0.19c0,0.07,0.02,0.12,0.07,0.16
	c0.04,0.04,0.16,0.09,0.34,0.13c0.19,0.04,0.31,0.08,0.38,0.12c0.1,0.05,0.17,0.11,0.22,0.19c0.05,0.07,0.07,0.16,0.07,0.26
	c0,0.1-0.03,0.19-0.08,0.27c-0.05,0.09-0.13,0.15-0.23,0.2c-0.1,0.05-0.21,0.07-0.33,0.07c-0.16,0-0.29-0.02-0.39-0.07
	c-0.11-0.05-0.19-0.12-0.25-0.22C549.03,1231.19,549,1231.08,549,1230.96 M546.82,1230.8h0.58l-0.18-0.51
	c-0.05-0.15-0.1-0.28-0.12-0.38c-0.02,0.12-0.05,0.23-0.09,0.35L546.82,1230.8z M546.33,1231.55l0.66-1.82h0.25l0.7,1.82h-0.26
	l-0.2-0.55h-0.72l-0.19,0.55H546.33z M545.05,1230.91l0.23,0.06c-0.05,0.2-0.13,0.35-0.26,0.45c-0.12,0.1-0.28,0.16-0.45,0.16
	c-0.19,0-0.34-0.04-0.45-0.12c-0.12-0.08-0.2-0.2-0.26-0.35c-0.06-0.15-0.09-0.31-0.09-0.49c0-0.19,0.03-0.35,0.1-0.5
	c0.07-0.14,0.16-0.25,0.29-0.32c0.13-0.07,0.26-0.11,0.42-0.11c0.17,0,0.32,0.05,0.43,0.14c0.12,0.09,0.2,0.22,0.24,0.39l-0.22,0.06
	c-0.04-0.13-0.1-0.23-0.17-0.29c-0.08-0.06-0.17-0.09-0.28-0.09c-0.13,0-0.24,0.03-0.33,0.1c-0.09,0.07-0.15,0.16-0.19,0.27
	c-0.04,0.11-0.05,0.23-0.05,0.35c0,0.16,0.02,0.29,0.06,0.41c0.04,0.12,0.11,0.2,0.2,0.26c0.09,0.06,0.19,0.09,0.29,0.09
	c0.13,0,0.23-0.04,0.32-0.12C544.96,1231.18,545.02,1231.06,545.05,1230.91"/>
</svg>
