<svg id="Layer_1" data-name="Layer 1" xmlns="http://www.w3.org/2000/svg" viewBox="0 0 19.14 21.73"><defs><style>.cls-1{fill:#fff;}.cls-2{fill:#da1964;}</style></defs><title>traning red</title><path class="cls-1" d="M6.08,22.56a6,6,0,0,1-1-.44,2.22,2.22,0,0,1-1-1.95c0-3.26,0-6.51,0-9.77a4.22,4.22,0,0,0-.22-1.09C3.64,8.67,3.42,8,3.28,7.4A2.31,2.31,0,0,1,4.84,4.74C6.27,4.3,7.71,3.9,9.15,3.48L17.91,1A2.36,2.36,0,0,1,21,2.6c.23.77.45,1.55.67,2.32.12.4,0,.58-.38.7L13.15,8,7.7,9.53s0,0,0,.07H22a.41.41,0,0,1,.41.38,2,2,0,0,1,0,.25V20a2.38,2.38,0,0,1-2,2.58l0,0H14.78c-.09-.11-.24-.21-.28-.34-.09-.29.13-.5.48-.5h4.86a2.6,2.6,0,0,0,.56-.06,1.52,1.52,0,0,0,1.11-1.57c0-1.8,0-3.59,0-5.39,0-.21,0-.27-.26-.27H4.91a.89.89,0,0,0,0,.11c0,1.89,0,3.78,0,5.67a1.44,1.44,0,0,0,1.34,1.48,11.82,11.82,0,0,0,1.46,0h3.74a.43.43,0,0,1,.48.37c0,.23-.11.36-.28.47ZM15.92,2.42c.1.08.17.12.22.17.9.85,1.79,1.71,2.67,2.57a.44.44,0,0,0,.52.12c.45-.15.91-.27,1.37-.41a.31.31,0,0,0,0-.1c-.2-.67-.38-1.36-.6-2a1.49,1.49,0,0,0-1.88-1l-1,.28Zm-7.42,6-3-2.89a.18.18,0,0,0-.12,0A1.52,1.52,0,0,0,4.12,7.18c.12.57.3,1.13.46,1.69.06.21.12.41.18.63Zm.1,2.07H4.91v3.09H6.64a.28.28,0,0,0,.28-.16c.52-.92,1-1.84,1.58-2.75Zm12.9,0H19.78a.3.3,0,0,0-.3.17c-.52.92-1.05,1.83-1.58,2.75l-.09.17H21.5Zm-9.79-3-.15-.12L9.16,5.05c-.18-.17-.34-.43-.55-.48s-.48.1-.72.17L6.4,5.17a.13.13,0,0,1,0,0l3,2.85a.15.15,0,0,0,.14,0Zm6.36-1.84L18,5.54,15.09,2.77a.29.29,0,0,0-.24,0l-1.91.55-.15.05s0,0,0,0L15.76,6.2a.21.21,0,0,0,.2,0ZM9.59,4.25l.06.09c1,.93,1.93,1.86,2.91,2.78a.27.27,0,0,0,.22,0l1.78-.52.29-.09a.16.16,0,0,1,0,0L11.89,3.69a.31.31,0,0,0-.21,0ZM7.82,13.57H10c.07,0,.15-.08.19-.15.54-.92,1.08-1.85,1.61-2.78a1.38,1.38,0,0,0,.08-.17H9.85a.36.36,0,0,0-.37.2c-.49.87-1,1.74-1.5,2.61Zm3.32,0h2.24c.06,0,.13-.07.17-.13l1.64-2.83.05-.11,0,0H13a.25.25,0,0,0-.17.11c-.15.24-.29.49-.43.73Zm7.43-3.1H16.46a.28.28,0,0,0-.3.17l-1.59,2.75s-.05.11-.09.19h2.14a.29.29,0,0,0,.28-.16c.52-.92,1.05-1.84,1.58-2.76A1.5,1.5,0,0,0,18.57,10.47Z" transform="translate(-3.24 -0.84)"/><path class="cls-1" d="M11.56,18V16a.43.43,0,0,1,.7-.41l3.59,2.07a.44.44,0,0,1,0,.83l-3.6,2.07a.43.43,0,0,1-.7-.4Zm.86,1.4L14.86,18l-2.44-1.41Z" transform="translate(-3.24 -0.84)"/><path class="cls-2" d="M12.42,19.43V16.62L14.86,18Z" transform="translate(-3.24 -0.84)"/></svg>