<svg id="Layer_1" data-name="Layer 1" xmlns="http://www.w3.org/2000/svg" viewBox="0 0 19.14 21.73"><defs><style>.cls-1{fill:#da1964;}.cls-2{fill:#69c1ec;}</style></defs><title>traning</title><path id="Path_3105" data-name="Path 3105" class="cls-1" d="M11,21.18l.17-3.54L14,19.49Z" transform="translate(-2.67 -1.89)"/><path d="M5.51,23.61a5.32,5.32,0,0,1-1-.44,2.22,2.22,0,0,1-1-2c0-3.26,0-6.51,0-9.77a4.22,4.22,0,0,0-.22-1.09c-.17-.64-.39-1.26-.53-1.91A2.31,2.31,0,0,1,4.27,5.79C5.7,5.35,7.14,5,8.58,4.53L17.34,2a2.36,2.36,0,0,1,3,1.65c.23.77.45,1.55.67,2.32.12.4,0,.58-.38.7L12.58,9,7.13,10.58s0,0,0,.07h14.3a.41.41,0,0,1,.41.38,2,2,0,0,1,0,.25V21a2.38,2.38,0,0,1-2,2.58s0,0,0,0H14.21c-.09-.11-.24-.21-.28-.34-.09-.29.13-.5.48-.5h4.86a2.6,2.6,0,0,0,.56-.06,1.52,1.52,0,0,0,1.11-1.57c0-1.79,0-3.59,0-5.39,0-.21,0-.27-.26-.27H4.34a.58.58,0,0,0,0,.1c0,1.89,0,3.78,0,5.67a1.45,1.45,0,0,0,1.34,1.49c.48.05,1,0,1.46,0h3.74a.43.43,0,0,1,.48.37c0,.23-.11.36-.28.47ZM15.35,3.47c.1.08.17.12.22.17.9.86,1.79,1.71,2.67,2.57a.44.44,0,0,0,.52.12l1.37-.41a.31.31,0,0,0,0-.1c-.2-.67-.38-1.36-.6-2a1.49,1.49,0,0,0-1.88-1l-1,.28Zm-7.42,6-3-2.89a.14.14,0,0,0-.12,0,1.51,1.51,0,0,0-1.24,1.7c.12.57.3,1.13.46,1.69l.18.63ZM8,11.53H4.34v3.09H6.07a.28.28,0,0,0,.28-.16c.52-.92,1.05-1.84,1.58-2.75Zm12.9,0H19.21a.3.3,0,0,0-.3.17c-.52.92-1.05,1.83-1.58,2.75l-.09.18h3.69Zm-9.79-3L11,8.41,8.59,6.1c-.18-.17-.34-.43-.55-.48s-.48.1-.72.17l-1.49.43a.13.13,0,0,1,0,0l3,2.85a.15.15,0,0,0,.14,0ZM17.5,6.69l-.09-.1L14.52,3.82a.29.29,0,0,0-.24,0l-1.91.55-.15,0s0,0,0,0l2.95,2.84a.23.23,0,0,0,.2,0ZM9,5.3l.06.09c1,.93,1.93,1.86,2.91,2.78a.24.24,0,0,0,.22.05L14,7.7a2.46,2.46,0,0,0,.29-.09v0L11.32,4.74a.31.31,0,0,0-.21,0ZM7.25,14.62H9.47c.07,0,.15-.08.19-.15.54-.92,1.08-1.85,1.61-2.78a1.38,1.38,0,0,0,.08-.17H9.28a.36.36,0,0,0-.37.2c-.49.87-1,1.74-1.5,2.61Zm3.32,0h2.24c.06,0,.13-.07.17-.12.55-1,1.09-1.9,1.64-2.84a.54.54,0,0,0,.05-.11l0,0H12.47a.25.25,0,0,0-.17.11c-.15.24-.29.49-.43.73ZM18,11.52H15.89a.29.29,0,0,0-.3.17L14,14.43c0,.05-.05.11-.09.19h2.14a.28.28,0,0,0,.28-.16c.52-.92,1.05-1.84,1.58-2.76A1.5,1.5,0,0,0,18,11.52Z" transform="translate(-2.67 -1.89)"/><path d="M12.51,23.61a.46.46,0,0,1-.29-.37.43.43,0,0,1,.29-.46A.44.44,0,0,1,13,23a.42.42,0,0,1-.1.53l-.13.1Z" transform="translate(-2.67 -1.89)"/><path d="M11,19.08V17a.43.43,0,0,1,.7-.41l3.59,2.07a.44.44,0,0,1,0,.83c-1.2.69-2.4,1.39-3.6,2.07a.43.43,0,0,1-.7-.4Zm.86,1.41,2.44-1.41-2.44-1.41Z" transform="translate(-2.67 -1.89)"/><path class="cls-2" d="M11.85,20.49V17.67l2.44,1.41Z" transform="translate(-2.67 -1.89)"/></svg>