<svg xmlns="http://www.w3.org/2000/svg" width="64.611" height="38.582" viewBox="0 0 64.611 38.582">
  <g id="Group_223" data-name="Group 223" transform="translate(-587.906 89.579)">
    <g id="Group_22" data-name="Group 22" transform="translate(638.633 -51.117)">
      <path id="Path_34" data-name="Path 34" d="M0,0A19.11,19.11,0,0,1-7.486-1.511a19.208,19.208,0,0,1-3.266-1.773A19.344,19.344,0,0,1-13.6-5.632a19.344,19.344,0,0,1-2.348-2.847,19.208,19.208,0,0,1-1.773-3.266,19.11,19.11,0,0,1-1.511-7.486,19.1,19.1,0,0,1,1.511-7.485,19.185,19.185,0,0,1,1.773-3.267A19.388,19.388,0,0,1-13.6-32.829a19.287,19.287,0,0,1,2.847-2.349,19.284,19.284,0,0,1,3.266-1.773A19.11,19.11,0,0,1,0-38.462a19.1,19.1,0,0,1,7.485,1.511,19.287,19.287,0,0,1,3.267,1.773A19.279,19.279,0,0,1,13.6-32.829c.1.095.192.193.286.291l-.276.017L11.06-29.972A15.3,15.3,0,0,0,0-34.656,15.443,15.443,0,0,0-15.425-19.231,15.443,15.443,0,0,0,0-3.806,15.354,15.354,0,0,0,10.575-8.012L13.23-5.32h.048a19.4,19.4,0,0,1-2.526,2.036A19.217,19.217,0,0,1,7.485-1.511,19.1,19.1,0,0,1,0,0" fill="#fff"/>
    </g>
    <g id="Group_222" data-name="Group 222" transform="translate(425.211 -125)">
      <g id="Group_21" data-name="Group 21" transform="translate(167.331 74.003)">
        <path id="Path_33" data-name="Path 33" d="M0,0H-4.636V-38.554L10.549-19.4,25.356-38.554V0H21V-25.687L10.549-12.678,0-25.687Z" fill="#fff"/>
      </g>
      <g id="Group_23" data-name="Group 23" transform="translate(213.421 67.073)">
        <path id="Path_35" data-name="Path 35" d="M0,0A12.346,12.346,0,0,1-4.834-.976,12.389,12.389,0,0,1-8.783-3.638a12.382,12.382,0,0,1-2.661-3.948,12.332,12.332,0,0,1-.976-4.834,12.328,12.328,0,0,1,.976-4.834A12.386,12.386,0,0,1-8.783-21.2a12.37,12.37,0,0,1,3.949-2.661A12.332,12.332,0,0,1,0-24.84a12.336,12.336,0,0,1,4.834.976A12.366,12.366,0,0,1,8.782-21.2c.053.053.106.107.158.161L6.349-18.45A8.68,8.68,0,0,0,0-21.18a8.77,8.77,0,0,0-8.76,8.76A8.77,8.77,0,0,0,0-3.66,8.734,8.734,0,0,0,5.895-5.946L8.47-3.336A12.367,12.367,0,0,1,4.834-.976,12.35,12.35,0,0,1,0,0" fill="#fff"/>
      </g>
      <g id="Group_24" data-name="Group 24" transform="translate(213.422 60.863)">
        <path id="Path_36" data-name="Path 36" d="M0,0A6.187,6.187,0,0,1-2.417-.488,6.212,6.212,0,0,1-4.391-1.819,6.19,6.19,0,0,1-5.722-3.793,6.17,6.17,0,0,1-6.21-6.21a6.166,6.166,0,0,1,.488-2.417A6.205,6.205,0,0,1-4.391-10.6a6.212,6.212,0,0,1,1.974-1.331A6.183,6.183,0,0,1,0-12.42a6.183,6.183,0,0,1,2.417.487A6.205,6.205,0,0,1,4.392-10.6c.052.054.105.108.156.163l-2.29,2.29A2.973,2.973,0,0,0,0-9.188,2.981,2.981,0,0,0-2.978-6.21,2.981,2.981,0,0,0,0-3.232,2.951,2.951,0,0,0,1.827-3.86L4.106-1.551A6.207,6.207,0,0,1,2.417-.488,6.184,6.184,0,0,1,0,0" fill="#fff"/>
      </g>
    </g>
  </g>
</svg>
