<svg id="Layer_1" data-name="Layer 1" xmlns="http://www.w3.org/2000/svg" viewBox="0 0 21.74 20.89"><defs><style>.cls-1{fill:#69c1ec;}.cls-2{fill:none;}</style></defs><title>workshop</title><ellipse id="Ellipse_44" data-name="Ellipse 44" class="cls-1" cx="18.7" cy="5.22" rx="2.17" ry="2.61"/><ellipse id="Ellipse_45" data-name="Ellipse 45" class="cls-1" cx="2.17" cy="5.22" rx="2.17" ry="2.61"/><path d="M2,5.69a4.48,4.48,0,0,1,.2-.62A2.3,2.3,0,0,1,4,3.69a.41.41,0,0,0,.15-.07,3.38,3.38,0,0,1,.47-.3c.3-.12.62-.21.92-.33a.37.37,0,0,0,.2-.19c.12-.33.23-.67.35-1a.68.68,0,0,1,.66-.51.7.7,0,0,1,.68.52c.11.33.21.66.34,1A.38.38,0,0,0,8,3c.32.13.64.23,1,.34A.7.7,0,0,1,9,4.69l-.9.3a.4.4,0,0,0-.3.29c-.09.32-.2.62-.31.93a.69.69,0,0,1-.82.5c-.13.26-.27.51-.42.79a1.36,1.36,0,0,1,.51.78,2.2,2.2,0,0,0,.38.54s.07,0,.11,0a1,1,0,0,1,1,.61,4.65,4.65,0,0,0,3,2.45,4.76,4.76,0,0,0,5.49-2.43,1,1,0,0,1,1-.63.2.2,0,0,0,.11,0,2.22,2.22,0,0,0,.37-.53,1.42,1.42,0,0,1,.52-.81,2.58,2.58,0,0,1-.49-1.17,2.33,2.33,0,0,1,2-2.61,3.14,3.14,0,0,1,.81,0c.27,0,.38.18.34.38s-.2.28-.47.22a1.7,1.7,0,0,0-2,1.14,1.64,1.64,0,0,0,.39,1.73.44.44,0,0,0,.28.12h1.92a.46.46,0,0,0,.29-.13A1.71,1.71,0,0,0,22,5l-.1-.14a.3.3,0,0,1,.06-.41.29.29,0,0,1,.43,0,2.27,2.27,0,0,1,.54,1.36,2.35,2.35,0,0,1-.51,1.6,1.1,1.1,0,0,1,.5,1.08,1.07,1.07,0,0,1-.76.9V10.6A1.1,1.1,0,0,1,22.85,12a1.12,1.12,0,0,1-.6.68.23.23,0,0,0-.12.17c0,2.36,0,4.71,0,7.07a.06.06,0,0,0,0,0A1.1,1.1,0,0,1,22.9,21a1.07,1.07,0,0,1-1,1.07H19.27a1.09,1.09,0,0,1-1-.89,1,1,0,0,1,.6-1.17.22.22,0,0,0,.15-.26q0-3.43,0-6.87a.25.25,0,0,0-.16-.26,1,1,0,0,1-.62-1,1,1,0,0,1,.62-1,.23.23,0,0,0,.16-.24c0-.27,0-.54,0-.81a.19.19,0,0,0-.12-.22,4.69,4.69,0,0,1-.49-.33c0,.08,0,.14,0,.18a1,1,0,0,1,0,1.08,6.52,6.52,0,0,1-5,3.59,6.64,6.64,0,0,1-7-3.62,1,1,0,0,1,0-1,.78.78,0,0,0,0-.18L6,9.44a.15.15,0,0,0-.06.13c0,.34,0,.68,0,1a3.62,3.62,0,0,1,.33.2,1.08,1.08,0,0,1-.15,1.83.28.28,0,0,0-.19.31c0,1.49,0,3,0,4.48a.82.82,0,0,1,0,.22.29.29,0,0,1-.32.25.29.29,0,0,1-.28-.28,1.62,1.62,0,0,1,0-.22V12.75H3.43v7.13H5.31v-.77c0-.1,0-.2,0-.31a.31.31,0,1,1,.61,0c0,.32,0,.63,0,1v.17a1.1,1.1,0,0,1,.73.79,1.07,1.07,0,0,1-1,1.35H3.08a1,1,0,0,1-1-.67L2,21.22v-.49a1.21,1.21,0,0,1,.78-.79V16.81c0-1.31,0-2.62,0-3.93,0-.07,0-.19-.06-.21A1.24,1.24,0,0,1,2,11.88V11.4a1.19,1.19,0,0,1,.77-.79V9.45A1.21,1.21,0,0,1,2,8.66V8.17l.43-.69L2,6.34ZM21.5,19.88V12.75H19.63v7.13Zm-9.24-6.49a6.26,6.26,0,0,0,4-1.35,6.18,6.18,0,0,0,1.61-2c.08-.16.1-.32,0-.43a.48.48,0,0,0-.36-.09.57.57,0,0,0-.26.29,5.41,5.41,0,0,1-9.61,0,.54.54,0,0,0-.29-.27A.4.4,0,0,0,7,9.61.33.33,0,0,0,7,10,6,6,0,0,0,12.26,13.39ZM4.12,4.3A1.69,1.69,0,0,0,2.74,5.47,1.64,1.64,0,0,0,3.13,7.2a.4.4,0,0,0,.28.12H5.34a.31.31,0,0,0,.17,0A1.36,1.36,0,0,0,6,5.9c-.08-.23-.15-.46-.24-.68A.37.37,0,0,0,5.57,5c-.28-.11-.56-.2-.85-.29A.86.86,0,0,1,4.12,4.3ZM6.78,1.86a1.1,1.1,0,0,0-.11.22c-.11.31-.23.63-.33,1a.78.78,0,0,1-.54.53l-1,.33A1.51,1.51,0,0,0,4.62,4l.25.1c.31.11.62.23.94.32A.75.75,0,0,1,6.33,5c.11.33.23.66.35,1,0,0,.06.08.09.12S6.86,6,6.87,6c.12-.33.24-.67.35-1a.76.76,0,0,1,.5-.5l1-.34L8.93,4l-.24-.12-.94-.32A.78.78,0,0,1,7.21,3c-.1-.33-.22-.64-.33-1A1.77,1.77,0,0,0,6.78,1.86Zm-2.41,7H5.59a.47.47,0,0,0,.5-.46A.45.45,0,0,0,5.61,8H3.13a.47.47,0,0,0-.49.46.48.48,0,0,0,.51.47Zm0,2.3H3.17a.48.48,0,0,0-.53.47.49.49,0,0,0,.51.47c.82,0,1.63,0,2.44,0a.47.47,0,0,0,.5-.48.48.48,0,0,0-.52-.46Zm16.19,0H19.34a.47.47,0,0,0-.5.44.45.45,0,0,0,.45.49c.85,0,1.69,0,2.53,0a.47.47,0,0,0,.47-.48.48.48,0,0,0-.51-.45ZM4.38,20.52H3.18c-.33,0-.54.18-.54.46a.48.48,0,0,0,.51.47c.81,0,1.63,0,2.44,0a.47.47,0,1,0,0-.93ZM20.57,8.88h1.22a.47.47,0,1,0,0-.93H19.32a.45.45,0,0,0-.48.46.47.47,0,0,0,.51.47Zm0,11.64H19.34a.47.47,0,1,0,0,.93q1.25,0,2.49,0a.47.47,0,0,0,.49-.47.47.47,0,0,0-.51-.46ZM3.43,9.51v1H5.3v-1Zm18.07,1v-1H19.63v1Z" transform="translate(-2.01 -1.19)"/><rect id="Rectangle_1803-2" data-name="Rectangle 1803-2" class="cls-2" x="0.87" width="20.87" height="20.87"/></svg>