<svg id="Layer_1" data-name="Layer 1" xmlns="http://www.w3.org/2000/svg" viewBox="0 0 19.23 18.36"><defs><style>.cls-1{fill:#da1964;}.cls-2{fill:#fff;}.cls-3{fill:none;}</style></defs><title>workshop red</title><g id="Group_11889-2" data-name="Group 11889-2"><ellipse id="Ellipse_44" data-name="Ellipse 44" class="cls-1" cx="16.54" cy="4.59" rx="1.92" ry="2.29"/><ellipse id="Ellipse_45" data-name="Ellipse 45" class="cls-1" cx="1.92" cy="4.59" rx="1.92" ry="2.29"/><path class="cls-2" d="M4,5.85a4.88,4.88,0,0,1,.18-.54A2.05,2.05,0,0,1,5.71,4.09.35.35,0,0,0,5.85,4a3.1,3.1,0,0,1,.41-.26c.27-.11.55-.19.82-.29a.37.37,0,0,0,.17-.18c.11-.28.2-.58.31-.87A.6.6,0,0,1,8.15,2a.63.63,0,0,1,.6.46c.1.28.19.57.3.86a.39.39,0,0,0,.18.18c.28.11.57.2.85.29a.62.62,0,0,1,0,1.2l-.8.27A.36.36,0,0,0,9,5.49c-.08.28-.18.54-.27.81A.62.62,0,0,1,8,6.75l-.37.68a1.22,1.22,0,0,1,.45.69,1.75,1.75,0,0,0,.34.48.15.15,0,0,0,.1,0,.88.88,0,0,1,.87.54,4.11,4.11,0,0,0,2.68,2.15,4.21,4.21,0,0,0,4.85-2.13.91.91,0,0,1,.9-.56.1.1,0,0,0,.1,0,1.74,1.74,0,0,0,.32-.46,1.26,1.26,0,0,1,.47-.71,2.2,2.2,0,0,1-.44-1A2.06,2.06,0,0,1,20.07,4.1a2.89,2.89,0,0,1,.72,0c.24,0,.33.16.3.34s-.18.24-.42.19a1.51,1.51,0,0,0-1.77,1,1.45,1.45,0,0,0,.35,1.52.38.38,0,0,0,.25.11h1.69a.37.37,0,0,0,.26-.12,1.47,1.47,0,0,0,.14-1.9l-.08-.12a.27.27,0,0,1,.43-.32A1.93,1.93,0,0,1,22.41,6,2,2,0,0,1,22,7.42a1,1,0,0,1,.45.95,1,1,0,0,1-.67.79v1a1,1,0,0,1,.64,1.2,1,1,0,0,1-.54.6.23.23,0,0,0-.11.15v6.22s0,0,0,0a1,1,0,0,1,.67.94.94.94,0,0,1-.92.94c-.76,0-1.52,0-2.29,0a1,1,0,0,1-.91-.78.93.93,0,0,1,.53-1c.12-.05.14-.11.14-.23v-6a.21.21,0,0,0-.14-.23.91.91,0,0,1-.54-.86.92.92,0,0,1,.54-.86A.17.17,0,0,0,19,10c0-.23,0-.47,0-.71a.18.18,0,0,0-.11-.19,4.07,4.07,0,0,1-.43-.29.57.57,0,0,0,0,.16.84.84,0,0,1,0,.95,5.73,5.73,0,0,1-4.41,3.15A5.88,5.88,0,0,1,7.87,9.9a.87.87,0,0,1,0-.92.46.46,0,0,0,0-.15l-.49.31a.17.17,0,0,0,0,.12v.89a2.91,2.91,0,0,1,.3.17,1,1,0,0,1-.14,1.61.24.24,0,0,0-.16.27v3.94a1.21,1.21,0,0,1,0,.19.26.26,0,0,1-.29.22.24.24,0,0,1-.24-.24,1.34,1.34,0,0,1,0-.2V12.05H5.19v6.27H6.86v-.68a2.43,2.43,0,0,1,0-.27.26.26,0,0,1,.26-.28.28.28,0,0,1,.29.28v1a1,1,0,0,1,.65.69,1,1,0,0,1-.89,1.19c-.76,0-1.53,0-2.29,0A.93.93,0,0,1,4,19.65L4,19.49v-.43a1.08,1.08,0,0,1,.69-.69v-6.2c0-.07,0-.17-.06-.19A1.08,1.08,0,0,1,4,11.29v-.43a1.09,1.09,0,0,1,.68-.69v-1A1.06,1.06,0,0,1,4,8.46V8l.38-.61L4,6.42ZM21.18,18.32V12.05H19.52v6.27ZM13,12.62a5.63,5.63,0,0,0,3.58-1.19A5.36,5.36,0,0,0,18,9.65a.29.29,0,0,0,0-.38.41.41,0,0,0-.32-.07.47.47,0,0,0-.23.25,4.81,4.81,0,0,1-6.51,2,4.73,4.73,0,0,1-2-2,.52.52,0,0,0-.26-.23.35.35,0,0,0-.3.1c-.11.11-.07.25,0,.38A5.29,5.29,0,0,0,13,12.62Zm-7.2-8a1.49,1.49,0,0,0-1.22,1,1.45,1.45,0,0,0,.34,1.52.41.41,0,0,0,.25.11H6.88a.25.25,0,0,0,.15,0A1.17,1.17,0,0,0,7.46,6c-.07-.21-.13-.41-.21-.61a.33.33,0,0,0-.17-.16c-.24-.1-.49-.18-.74-.26A.76.76,0,0,1,5.8,4.63ZM8.15,2.48a.75.75,0,0,0-.09.19l-.3.84A.71.71,0,0,1,7.29,4c-.29.08-.57.19-.85.28-.06,0-.1.06-.2.11l.22.1.84.28a.68.68,0,0,1,.46.46l.3.88s.06.07.08.11.08-.07.1-.11c.1-.3.2-.6.31-.9A.62.62,0,0,1,9,4.77l.86-.3.21-.1-.22-.1c-.27-.1-.55-.2-.83-.28a.69.69,0,0,1-.47-.47c-.1-.29-.2-.57-.29-.85A1.88,1.88,0,0,0,8.15,2.48ZM6,8.65H7.11a.4.4,0,0,0,.43-.4.4.4,0,0,0-.42-.42H4.93a.42.42,0,0,0-.44.41A.43.43,0,0,0,5,8.65Zm0,2H5a.42.42,0,0,0-.47.4A.44.44,0,0,0,5,11.5H7.11a.41.41,0,0,0,.43-.43.4.4,0,0,0-.45-.39Zm14.31,0H19.26a.39.39,0,0,0-.43.38.39.39,0,0,0,.4.43h2.23a.4.4,0,0,0,.41-.43.41.41,0,0,0-.45-.38ZM6,18.88H5a.42.42,0,0,0-.48.4.43.43,0,0,0,.45.42H7.1a.41.41,0,0,0,.44-.42.4.4,0,0,0-.45-.4ZM20.35,8.65h1.08a.41.41,0,1,0,0-.82h-2.2a.4.4,0,0,0-.43.41.41.41,0,0,0,.45.41Zm0,10.23H19.26a.41.41,0,0,0-.44.4.42.42,0,0,0,.42.42h2.2a.42.42,0,0,0,.43-.41.41.41,0,0,0-.45-.41ZM5.2,9.21v.9H6.84v-.9Zm16,.91V9.21H19.53v.91Z" transform="translate(-3.93 -1.89)"/><rect id="Rectangle_1803-2" data-name="Rectangle 1803-2" class="cls-3" x="0.77" width="18.46" height="18.34"/></g></svg>